<?xml version="1.0" encoding="utf-8"?>
<!-- Generator: Adobe Illustrator 16.0.4, SVG Export Plug-In . SVG Version: 6.00 Build 0)  -->
<!DOCTYPE svg PUBLIC "-//W3C//DTD SVG 1.1//EN" "http://www.w3.org/Graphics/SVG/1.1/DTD/svg11.dtd">
<svg version="1.1" xmlns="http://www.w3.org/2000/svg" xmlns:xlink="http://www.w3.org/1999/xlink" x="0px" y="0px" width="16px"
	 height="16px" viewBox="0 0 16 16" enable-background="new 0 0 16 16" xml:space="preserve">
<g id="Layer_1" display="none">
	<polygon display="inline" points="3.508,1.578 9.352,8.025 3.533,14.413 5.229,16 12.492,8.029 5.213,0 	"/>
</g>
<g id="Layer_2" display="none">
	<polygon display="inline" points="12.492,14.422 6.648,7.975 12.467,1.587 10.771,0 3.508,7.971 10.787,16 	"/>
</g>
<g id="Layer_4" display="none">
	<polygon display="inline" points="14.422,3.508 7.975,9.352 1.587,3.533 0,5.229 7.971,12.492 16,5.213 	"/>
</g>
<g id="Layer_5">
	<polygon points="1.578,12.492 8.025,6.648 14.413,12.467 16,10.771 8.029,3.508 0,10.787 	"/>
</g>
<g id="Layer_3" display="none">
	<path display="inline" fill-rule="evenodd" clip-rule="evenodd" d="M16,2.286L10.286,8L16,13.714L13.715,16L8,10.285L2.286,16
		L0,13.714L5.715,8L0,2.286L2.286,0L8,5.714L13.715,0L16,2.286z"/>
</g>
<g id="Layer_6" display="none">
	<g display="inline">
		<polygon points="9.158,8.015 6.01,11.471 6.928,12.328 10.857,8.016 6.919,3.672 5.997,4.525 		"/>
		<path d="M16,1V0H0v0h-0.001v16h1V16h14v0.001h1V16H16v-1h-0.001L16,1L16,1z M14.999,15h-14V1h14V15z"/>
	</g>
</g>
<g id="Layer_7" display="none">
	<g display="inline">
		<polygon points="6.841,7.985 9.988,4.529 9.07,3.671 5.142,7.984 9.08,12.328 10.002,11.475 		"/>
		<path d="M0,15v1h16l0,0H16V0h-1l0,0H1l0,0H0l0,0l0,0v1l0,0V15L0,15z M1,1h14v14H1V1z"/>
	</g>
</g>
<g id="Layer_8" display="none">
	<path display="inline" fill-rule="evenodd" clip-rule="evenodd" d="M13.395,5.396C13.395,2.416,10.979,0,8,0
		S2.605,2.416,2.605,5.396c0,0.966,0.257,1.87,0.702,2.654H3.304L8,16l4.697-7.95h-0.004C13.138,7.266,13.395,6.361,13.395,5.396z
		 M8,3.283c1.149,0,2.081,0.932,2.081,2.081c0,1.148-0.932,2.08-2.081,2.08c-1.148,0-2.08-0.932-2.08-2.08
		C5.92,4.215,6.852,3.283,8,3.283z"/>
</g>
<g id="Layer_9" display="none">
	<path display="inline" fill-rule="evenodd" clip-rule="evenodd" d="M14.176,4.025c-0.453,0.209-0.942,0.35-1.456,0.414
		c0.524-0.325,0.926-0.841,1.113-1.455c-0.488,0.301-1.03,0.521-1.608,0.639c-0.461-0.511-1.12-0.831-1.848-0.831
		c-1.401,0-2.536,1.177-2.536,2.63c0,0.206,0.023,0.406,0.066,0.599C5.802,5.912,3.934,4.864,2.684,3.273
		c-0.218,0.388-0.343,0.84-0.343,1.322c0,0.913,0.447,1.717,1.126,2.188C3.053,6.77,2.662,6.652,2.32,6.455c0,0.011,0,0.021,0,0.033
		c0,1.274,0.874,2.336,2.032,2.578c-0.212,0.06-0.436,0.093-0.667,0.093c-0.164,0-0.322-0.018-0.477-0.048
		c0.322,1.045,1.258,1.805,2.367,1.825c-0.867,0.707-1.959,1.127-3.147,1.127c-0.204,0-0.406-0.013-0.604-0.036
		c1.122,0.744,2.453,1.181,3.885,1.181c4.662,0,7.21-4.008,7.21-7.481c0-0.114-0.003-0.228-0.007-0.34
		C13.407,5.016,13.835,4.552,14.176,4.025z"/>
</g>
<g id="Layer_11" display="none">
	<path display="inline" fill-rule="evenodd" clip-rule="evenodd" d="M6.51,4.519c0,0.286,0,1.564,0,1.564H5.375v1.913H6.51v5.686
		H8.84V7.997h1.566c0,0,0.144-0.917,0.216-1.92c-0.204,0-1.772,0-1.772,0s0-1.112,0-1.308S9.104,4.31,9.354,4.31
		c0.25,0,0.78,0,1.271,0c0-0.261,0-1.161,0-1.992c-0.654,0-1.399,0-1.727,0C6.452,2.318,6.51,4.233,6.51,4.519z"/>
</g>
<g id="Layer_12" display="none">
	<path display="inline" fill-rule="evenodd" clip-rule="evenodd" d="M13.29,4.675v2.67h-0.678v-2.67H9.904V4.008h2.708V1.336h0.678
		v2.671h2.708v0.667H13.29z M6.472,2.004C7.352,2.338,7.82,3.35,7.82,4.388c0,0.872-0.488,1.622-1.181,2.155
		c-0.676,0.521-0.804,0.738-0.804,1.18c0,0.378,0.724,1.02,1.102,1.283c1.106,0.772,1.465,1.489,1.465,2.684
		c0,1.491-1.465,2.974-4.114,2.974c-2.325,0-4.285-0.933-4.285-2.424c0-1.514,1.788-2.974,4.113-2.974
		c0.252,0,0.485-0.006,0.725-0.006C4.522,8.955,4.271,8.581,4.271,8.12c0-0.274,0.088-0.537,0.212-0.771
		c-0.126,0.01-0.255,0.012-0.387,0.012c-1.91,0-3.188-1.339-3.188-2.999c0-1.624,1.766-3.026,3.643-3.026c1.046,0,4.186,0,4.186,0
		L7.798,2.004H6.472z M4.558,9.651c-1.607-0.018-3.045,0.965-3.045,2.146c0,1.205,1.16,2.208,2.767,2.208
		c2.259,0,3.045-0.941,3.045-2.147c0-0.144-0.018-0.286-0.051-0.424c-0.177-0.683-0.801-1.02-1.673-1.618
		C5.282,9.715,4.933,9.655,4.558,9.651z M6.316,4.47C6.13,3.073,5.104,1.953,4.027,1.921C2.949,1.889,2.225,2.958,2.412,4.354
		c0.185,1.396,1.21,2.553,2.289,2.585C5.779,6.972,6.502,5.866,6.316,4.47z"/>
</g>
<g id="Layer_10" display="none">
	<path display="inline" fill-rule="evenodd" clip-rule="evenodd" d="M8,2.002c-3.24,0-5.868,2.686-5.868,5.998
		c0,2.458,1.445,4.567,3.513,5.495c-0.018-0.42-0.004-0.924,0.102-1.379c0.113-0.487,0.755-3.268,0.755-3.268
		S6.315,8.464,6.315,7.899c0-0.889,0.504-1.553,1.132-1.553c0.533,0,0.791,0.41,0.791,0.901c0,0.548-0.342,1.368-0.519,2.128
		c-0.146,0.637,0.312,1.154,0.926,1.154c1.112,0,1.861-1.459,1.861-3.188c0-1.314-0.866-2.297-2.441-2.297
		c-1.78,0-2.889,1.357-2.889,2.872c0,0.522,0.151,0.892,0.387,1.176c0.109,0.131,0.124,0.183,0.084,0.333
		c-0.027,0.11-0.093,0.376-0.12,0.482c-0.039,0.152-0.159,0.207-0.293,0.151c-0.82-0.343-1.202-1.261-1.202-2.293
		c0-1.704,1.405-3.746,4.193-3.746c2.241,0,3.714,1.657,3.714,3.436c0,2.354-1.278,4.11-3.165,4.11
		c-0.633,0-1.229-0.349-1.433-0.748c0,0-0.341,1.382-0.414,1.648c-0.124,0.463-0.367,0.925-0.589,1.286
		C6.866,13.91,7.423,13.996,8,13.996c3.24,0,5.866-2.685,5.866-5.997S11.24,2.002,8,2.002z"/>
</g>
<g id="Layer_13" display="none">
	<rect display="inline" fill-rule="evenodd" clip-rule="evenodd" width="16" height="16"/>
</g>
</svg>
